<svg xmlns="http://www.w3.org/2000/svg" xmlns:xlink="http://www.w3.org/1999/xlink" width="256" zoomAndPan="magnify" viewBox="0 0 192 191.999996" height="256" preserveAspectRatio="xMidYMid meet" version="1.0"><defs><g/><clipPath id="a475bc7e4c"><path d="M 19.199219 73.351562 L 43 73.351562 L 43 109 L 19.199219 109 Z M 19.199219 73.351562 " clip-rule="nonzero"/></clipPath><clipPath id="205ce88722"><rect x="0" width="123" y="0" height="36"/></clipPath></defs><g clip-path="url(#a475bc7e4c)"><path fill="#5e17eb" d="M 19.269531 92.675781 L 42.082031 73.390625 L 33.269531 108.152344 L 32.921875 95.828125 Z M 19.269531 92.675781 " fill-opacity="1" fill-rule="nonzero"/></g><path fill="#5e17eb" d="M 34.796875 88.417969 L 50.785156 93.199219 L 27.375 113.183594 L 27.382812 113.191406 Z M 34.796875 88.417969 " fill-opacity="1" fill-rule="nonzero"/><g transform="matrix(1, 0, 0, 1, 56, 75)"><g clip-path="url(#205ce88722)"><g fill="#5e17eb" fill-opacity="1"><g transform="translate(0.507137, 26.817883)"><g><path d="M 20 -5.015625 L 20 -23.1875 L 23 -23.1875 L 23 0 L 20.4375 0 L 6.171875 -18.125 L 6.171875 0 L 3.15625 0 L 3.15625 -23.1875 L 5.6875 -23.1875 L 19.96875 -5.015625 Z M 20 -5.015625 "/></g></g></g><g fill="#5e17eb" fill-opacity="1"><g transform="translate(24.628912, 26.817883)"><g><path d="M 18.78125 -9.125 C 18.78125 -8.96875 18.773438 -8.804688 18.765625 -8.640625 C 18.765625 -8.484375 18.753906 -8.242188 18.734375 -7.921875 L 4.3125 -7.921875 C 4.4375 -6.765625 4.773438 -5.757812 5.328125 -4.90625 C 5.890625 -4.050781 6.585938 -3.394531 7.421875 -2.9375 C 8.265625 -2.476562 9.164062 -2.25 10.125 -2.25 C 11.289062 -2.25 12.289062 -2.5 13.125 -3 C 13.957031 -3.507812 14.566406 -4.253906 14.953125 -5.234375 L 18.234375 -5.234375 C 17.984375 -4.441406 17.609375 -3.695312 17.109375 -3 C 16.617188 -2.300781 16.023438 -1.691406 15.328125 -1.171875 C 14.628906 -0.660156 13.84375 -0.257812 12.96875 0.03125 C 12.101562 0.332031 11.175781 0.484375 10.1875 0.484375 C 8.925781 0.484375 7.757812 0.25 6.6875 -0.21875 C 5.613281 -0.695312 4.675781 -1.351562 3.875 -2.1875 C 3.070312 -3.03125 2.445312 -4.003906 2 -5.109375 C 1.5625 -6.222656 1.34375 -7.414062 1.34375 -8.6875 C 1.34375 -9.957031 1.5625 -11.144531 2 -12.25 C 2.445312 -13.363281 3.070312 -14.34375 3.875 -15.1875 C 4.675781 -16.03125 5.613281 -16.6875 6.6875 -17.15625 C 7.757812 -17.632812 8.925781 -17.875 10.1875 -17.875 C 11.4375 -17.875 12.585938 -17.640625 13.640625 -17.171875 C 14.691406 -16.710938 15.597656 -16.070312 16.359375 -15.25 C 17.128906 -14.4375 17.722656 -13.503906 18.140625 -12.453125 C 18.566406 -11.398438 18.78125 -10.289062 18.78125 -9.125 Z M 4.453125 -10.515625 L 15.78125 -10.515625 C 15.738281 -11.128906 15.5625 -11.710938 15.25 -12.265625 C 14.9375 -12.828125 14.523438 -13.320312 14.015625 -13.75 C 13.503906 -14.175781 12.914062 -14.507812 12.25 -14.75 C 11.582031 -15 10.878906 -15.125 10.140625 -15.125 C 9.273438 -15.125 8.453125 -14.945312 7.671875 -14.59375 C 6.890625 -14.238281 6.210938 -13.71875 5.640625 -13.03125 C 5.078125 -12.351562 4.679688 -11.515625 4.453125 -10.515625 Z M 4.453125 -10.515625 "/></g></g></g><g fill="#5e17eb" fill-opacity="1"><g transform="translate(42.461234, 26.817883)"><g><path d="M 4.109375 0 L 0.671875 0 L 6.703125 -8.859375 L 0.8125 -17.390625 L 4.296875 -17.390625 L 8.734375 -10.84375 L 8.75 -10.84375 L 13.1875 -17.390625 L 16.65625 -17.390625 L 10.765625 -8.859375 L 16.828125 0 L 13.296875 0 L 8.703125 -6.78125 Z M 4.109375 0 "/></g></g></g><g fill="#5e17eb" fill-opacity="1"><g transform="translate(57.924358, 26.817883)"><g><path d="M 17.4375 0 L 3.15625 0 L 3.15625 -23.1875 L 6.171875 -23.1875 L 6.171875 -2.734375 L 17.4375 -2.734375 Z M 17.4375 0 "/></g></g></g><g fill="#5e17eb" fill-opacity="1"><g transform="translate(74.018132, 26.817883)"><g><path d="M 4.265625 -20.78125 C 3.660156 -20.78125 3.175781 -20.960938 2.8125 -21.328125 C 2.457031 -21.691406 2.28125 -22.132812 2.28125 -22.65625 C 2.28125 -23.164062 2.457031 -23.601562 2.8125 -23.96875 C 3.175781 -24.332031 3.664062 -24.515625 4.28125 -24.515625 C 4.90625 -24.515625 5.394531 -24.332031 5.75 -23.96875 C 6.113281 -23.601562 6.296875 -23.164062 6.296875 -22.65625 C 6.296875 -22.132812 6.113281 -21.691406 5.75 -21.328125 C 5.394531 -20.960938 4.898438 -20.78125 4.265625 -20.78125 Z M 5.75 0 L 2.8125 0 L 2.8125 -17.390625 L 5.75 -17.390625 Z M 5.75 0 "/></g></g></g><g fill="#5e17eb" fill-opacity="1"><g transform="translate(80.549893, 26.817883)"><g><path d="M 5.75 0 L 2.8125 0 L 2.8125 -17.390625 L 5.625 -17.390625 L 5.625 -14.03125 C 5.957031 -14.78125 6.4375 -15.441406 7.0625 -16.015625 C 7.695312 -16.597656 8.4375 -17.050781 9.28125 -17.375 C 10.132812 -17.707031 11.050781 -17.875 12.03125 -17.875 C 14.34375 -17.875 16.09375 -17.160156 17.28125 -15.734375 C 18.476562 -14.304688 19.078125 -12.203125 19.078125 -9.421875 L 19.078125 0 L 16.140625 0 L 16.140625 -9.375 C 16.140625 -11.375 15.707031 -12.832031 14.84375 -13.75 C 13.976562 -14.675781 12.789062 -15.140625 11.28125 -15.140625 C 10.550781 -15.140625 9.851562 -15 9.1875 -14.71875 C 8.53125 -14.445312 7.941406 -14.050781 7.421875 -13.53125 C 6.898438 -13.007812 6.488281 -12.378906 6.1875 -11.640625 C 5.894531 -10.898438 5.75 -10.066406 5.75 -9.140625 Z M 5.75 0 "/></g></g></g><g fill="#5e17eb" fill-opacity="1"><g transform="translate(100.205986, 26.817883)"><g><path d="M 17.6875 0 L 14.375 0 L 9 -8.484375 L 5.75 -4.890625 L 5.75 0 L 2.8125 0 L 2.8125 -24 L 5.75 -24 L 5.75 -8.125 L 13.203125 -17.390625 L 16.8125 -17.390625 L 11.140625 -10.40625 Z M 17.6875 0 "/></g></g></g></g></g></svg>